<svg xmlns="http://www.w3.org/2000/svg" viewBox="0 0 760 212" font-family="sans-serif">
<defs><marker id="arr" markerWidth="7" markerHeight="7" refX="6" refY="3" orient="auto"><path d="M0,0 L6,3 L0,6 z" fill="#8395b4"/></marker></defs>
<rect width="760" height="212" fill="#ffffff"/>
<text x="40" y="30" font-size="15" font-weight="700" fill="#15233c">dependency graph (directory-level, depth=4) — 4 buckets / 6 edges</text><path d="M285,106 C285,83 625,83 625,60" fill="none" stroke="#d97706" stroke-width="2.65" opacity="0.62" marker-end="url(#arr)"/><path d="M285,106 C285,83 455,83 455,60" fill="none" stroke="#d97706" stroke-width="2.8" opacity="0.6599999999999999" marker-end="url(#arr)"/><path d="M455,106 C455,83 285,83 285,60" fill="none" stroke="#d97706" stroke-width="1.15" opacity="0.22" marker-end="url(#arr)"/><path d="M625,106 C625,83 455,83 455,60" fill="none" stroke="#d97706" stroke-width="2.05" opacity="0.46" marker-end="url(#arr)"/><path d="M625,106 C625,83 285,83 285,60" fill="none" stroke="#d97706" stroke-width="1.3" opacity="0.26" marker-end="url(#arr)"/><rect x="210" y="60" rx="8" width="150" height="46" fill="#eef3fb" stroke="#5b7db1" stroke-width="1.2"/>
<text x="285" y="79" text-anchor="middle" font-size="10.5" font-weight="600" fill="#1f2d44">packages/preview-site/src/landing</text>
<text x="285" y="95" text-anchor="middle" font-size="9.5" fill="#5a6b85">81 files</text><rect x="380" y="60" rx="8" width="150" height="46" fill="#eef3fb" stroke="#5b7db1" stroke-width="1.2"/>
<text x="455" y="79" text-anchor="middle" font-size="10.5" font-weight="600" fill="#1f2d44">packages/preview-site/src/lib</text>
<text x="455" y="95" text-anchor="middle" font-size="9.5" fill="#5a6b85">12 files</text><rect x="550" y="60" rx="8" width="150" height="46" fill="#eef3fb" stroke="#5b7db1" stroke-width="1.2"/>
<text x="625" y="79" text-anchor="middle" font-size="10.5" font-weight="600" fill="#1f2d44">packages/preview-site/src/shell</text>
<text x="625" y="95" text-anchor="middle" font-size="9.5" fill="#5a6b85">40 files</text><rect x="40" y="60" rx="8" width="150" height="46" fill="#eef3fb" stroke="#5b7db1" stroke-width="1.2"/>
<text x="115" y="79" text-anchor="middle" font-size="10.5" font-weight="600" fill="#1f2d44">packages/preview-site/src</text>
<text x="115" y="95" text-anchor="middle" font-size="9.5" fill="#5a6b85">1 files</text><text x="40" y="196" font-size="10" fill="#5a6b85">orange = upward edge (potential layer violation / cycle participant). Generated by vibe-risk graph-fallback (no graphviz needed).</text></svg>