<svg xmlns="http://www.w3.org/2000/svg" viewBox="0 0 250 488" font-family="sans-serif">
<defs><marker id="arr" markerWidth="7" markerHeight="7" refX="6" refY="3" orient="auto"><path d="M0,0 L6,3 L0,6 z" fill="#8395b4"/></marker></defs>
<rect width="250" height="488" fill="#ffffff"/>
<text x="40" y="30" font-size="15" font-weight="700" fill="#15233c">dependency graph (directory-level, depth=4) — 4 buckets / 5 edges</text><path d="M115,198 C115,221 115,221 115,244" fill="none" stroke="#5b7db1" stroke-width="2.95" opacity="0.7" marker-end="url(#arr)"/><path d="M115,198 C115,267 115,267 115,336" fill="none" stroke="#5b7db1" stroke-width="4" opacity="0.7" marker-end="url(#arr)"/><path d="M115,106 C115,129 115,129 115,152" fill="none" stroke="#5b7db1" stroke-width="1.45" opacity="0.3" marker-end="url(#arr)"/><path d="M115,290 C115,313 115,313 115,336" fill="none" stroke="#5b7db1" stroke-width="4" opacity="0.7" marker-end="url(#arr)"/><path d="M115,106 C115,221 115,221 115,336" fill="none" stroke="#5b7db1" stroke-width="1.15" opacity="0.22" marker-end="url(#arr)"/><rect x="40" y="152" rx="8" width="150" height="46" fill="#eef3fb" stroke="#5b7db1" stroke-width="1.2"/>
<text x="115" y="171" text-anchor="middle" font-size="10.5" font-weight="600" fill="#1f2d44">packages/template-react/src/app</text>
<text x="115" y="187" text-anchor="middle" font-size="9.5" fill="#5a6b85">13 files</text><rect x="40" y="60" rx="8" width="150" height="46" fill="#eef3fb" stroke="#5b7db1" stroke-width="1.2"/>
<text x="115" y="79" text-anchor="middle" font-size="10.5" font-weight="600" fill="#1f2d44">packages/template-react/src</text>
<text x="115" y="95" text-anchor="middle" font-size="9.5" fill="#5a6b85">3 files</text><rect x="40" y="244" rx="8" width="150" height="46" fill="#eef3fb" stroke="#5b7db1" stroke-width="1.2"/>
<text x="115" y="263" text-anchor="middle" font-size="10.5" font-weight="600" fill="#1f2d44">packages/template-react/src/features</text>
<text x="115" y="279" text-anchor="middle" font-size="9.5" fill="#5a6b85">113 files</text><rect x="40" y="336" rx="8" width="150" height="46" fill="#eef3fb" stroke="#5b7db1" stroke-width="1.2"/>
<text x="115" y="355" text-anchor="middle" font-size="10.5" font-weight="600" fill="#1f2d44">packages/template-react/src/shared</text>
<text x="115" y="371" text-anchor="middle" font-size="9.5" fill="#5a6b85">44 files</text><text x="40" y="472" font-size="10" fill="#5a6b85">orange = upward edge (potential layer violation / cycle participant). Generated by vibe-risk graph-fallback (no graphviz needed).</text></svg>