<svg xmlns="http://www.w3.org/2000/svg" viewBox="0 0 410 404"><path d="M399.641 59.5246L215.643 388.545c-3.79 6.789-13.563 6.829-17.41.073L10.582 59.6226c-4.198-7.354 2.108-16.448 10.521-14.94l184.31 32.916a10.04 10.04 0 0 0 3.612-.0119l180.404-32.8916c8.386-1.529 14.72 7.5224 10.612 14.8716z" fill="url(#a)"/><path d="M292.965 1.5744l-136.21 27.0185a7.27 7.27 0 0 0-5.836 6.0942l-8.385 70.6739a7.272 7.272 0 0 0 8.504 8.105l37.94-7.001c5.224-.965 9.946 3.658 8.91 8.86l-11.279 55.232a7.275 7.275 0 0 0 8.978 8.448l23.421-7.118c5.245-1.594 10.328 2.911 9.405 8.347l-17.911 105.553c-1.342 7.926 9.193 12.244 13.882 5.687L300 80.6444c4.394-6.155-.851-14.6354-8.31-13.6716z" fill="url(#b)"/><defs><linearGradient id="a" x1="6.0001" y1="32.9999" x2="235" y2="344" gradientUnits="userSpaceOnUse"><stop stop-color="#41D1FF"/><stop offset="1" stop-color="#BD34FE"/></linearGradient><linearGradient id="b" x1="194.651" y1="8.81818" x2="236.076" y2="292.989" gradientUnits="userSpaceOnUse"><stop stop-color="#FFEA83"/><stop offset=".0833" stop-color="#FFDD35"/><stop offset="1" stop-color="#FFA800"/></linearGradient></defs></svg>
